<?xml version="1.0" standalone="no"?>
<!DOCTYPE svg PUBLIC "-//W3C//DTD SVG 20010904//EN"
 "http://www.w3.org/TR/2001/REC-SVG-20010904/DTD/svg10.dtd">
<svg version="1.0" xmlns="http://www.w3.org/2000/svg"
 width="200.000000pt" height="200.000000pt" viewBox="0 0 200.000000 200.000000"
 preserveAspectRatio="xMidYMid meet">

<g transform="translate(0.000000,200.000000) scale(0.100000,-0.100000)"
fill="#000000" stroke="none">
<path d="M1146 1632 l-156 -156 -37 19 c-20 11 -73 46 -117 78 -45 33 -106 72
-137 87 -30 16 -61 35 -68 44 -17 21 -45 21 -37 1 3 -9 13 -59 21 -113 9 -53
25 -131 35 -174 30 -114 33 -108 -59 -108 -44 0 -115 7 -158 15 -80 15 -133
19 -133 10 0 -6 97 -149 178 -263 24 -35 43 -65 40 -67 -10 -11 -161 -75 -200
-85 l-43 -12 45 -39 c25 -21 82 -67 128 -101 l82 -62 -82 -41 c-45 -22 -88
-50 -96 -62 -17 -27 -16 -27 121 -68 48 -14 87 -28 87 -30 0 -3 -13 -31 -30
-62 -16 -32 -30 -71 -32 -88 l-3 -30 87 3 88 4 -6 -46 c-8 -53 -1 -56 48 -26
41 25 52 25 103 0 23 -11 78 -25 123 -30 90 -12 147 -3 214 31 40 21 43 21
105 4 35 -10 66 -15 69 -13 2 3 0 17 -6 32 -18 48 -14 56 33 56 23 0 64 -7 91
-15 28 -8 53 -12 57 -8 5 5 -2 25 -14 45 -12 20 -42 68 -65 108 -24 39 -42 73
-40 74 1 1 30 10 63 20 76 23 135 53 135 68 0 7 -29 39 -65 73 -36 33 -65 63
-65 67 0 3 56 34 125 67 69 34 125 67 125 74 0 15 -21 29 -132 87 l-87 46 57
70 c150 186 212 273 212 302 0 19 -52 15 -210 -19 -80 -16 -162 -33 -182 -36
l-38 -6 0 211 c0 116 -4 213 -8 216 -5 3 -79 -65 -166 -152z m154 -82 c0 -177
2 -201 16 -207 9 -3 85 8 168 25 209 44 236 48 236 31 0 -20 -15 -40 -154
-213 -83 -104 -115 -151 -105 -155 32 -10 189 -94 199 -106 14 -16 -18 -37
-140 -91 -52 -23 -96 -46 -98 -52 -1 -5 29 -40 68 -78 l70 -68 -32 -18 c-18
-10 -58 -25 -88 -34 -96 -29 -94 -25 -54 -96 19 -34 48 -80 65 -102 32 -44 26
-54 -23 -37 -17 6 -56 11 -86 11 l-55 0 6 -44 6 -44 -37 11 c-20 6 -38 12 -40
13 -2 1 13 23 32 48 20 26 40 63 46 84 74 272 77 289 91 462 10 128 10 153 -5
210 -19 75 -54 129 -110 174 -21 17 -54 47 -73 67 -26 27 -49 40 -96 52 -104
26 -119 27 -201 4 -72 -20 -85 -28 -147 -88 -115 -111 -169 -264 -169 -480 0
-176 61 -389 146 -506 15 -21 14 -22 -15 -37 -41 -21 -41 -21 -38 22 l2 37
-87 -2 -87 -3 9 31 c5 17 23 56 40 86 17 30 29 57 27 60 -9 8 -142 53 -160 53
-10 0 -27 5 -38 11 -20 10 -20 12 -4 29 10 11 52 33 94 51 42 17 80 35 85 39
4 5 -5 15 -20 23 -30 16 -111 77 -183 139 -41 35 -42 36 -19 43 21 6 198 84
207 91 2 2 -21 38 -51 81 -132 189 -167 243 -153 243 7 0 49 -7 92 -15 43 -8
117 -15 166 -15 86 0 87 0 87 25 0 14 -11 71 -24 128 -13 56 -27 125 -31 152
-4 28 -9 58 -12 69 -7 25 97 -33 228 -126 144 -102 129 -106 294 66 77 80 143
146 148 146 4 0 7 -90 7 -200z m-226 -170 c71 -18 84 -25 157 -92 140 -126
157 -175 139 -408 -8 -110 -20 -184 -40 -255 -15 -55 -33 -122 -39 -149 -36
-149 -139 -230 -291 -229 -163 1 -242 50 -306 188 -56 121 -87 289 -81 440 8
197 53 317 155 418 52 51 69 62 138 82 97 29 77 28 168 5z"/>
<path d="M1035 1239 c-11 -4 -46 -8 -77 -8 -36 -1 -58 -5 -58 -12 0 -15 146
-7 161 8 15 15 -2 22 -26 12z"/>
<path d="M1005 1194 c-22 -8 -67 -14 -100 -14 -79 2 -83 1 -65 -10 23 -15 122
-12 170 5 23 8 53 15 66 15 13 0 24 5 24 10 0 14 -48 11 -95 -6z"/>
<path d="M982 1142 l-102 -26 -86 18 c-86 18 -87 18 -108 -3 -68 -68 117 -99
327 -55 92 19 196 18 236 -2 26 -13 38 -14 57 -5 51 23 17 61 -78 87 -73 19
-126 16 -246 -14z m247 -7 c62 -16 95 -40 69 -50 -9 -4 -30 1 -47 9 -43 22
-157 20 -277 -5 -103 -22 -224 -21 -267 3 -17 9 -18 12 -5 25 13 12 23 12 82
-1 87 -20 112 -19 221 9 108 27 152 29 224 10z"/>
<path d="M714 1042 c-33 -22 -45 -114 -21 -162 18 -36 74 -70 116 -70 58 0
121 38 150 91 23 42 24 50 13 85 -14 46 -29 71 -37 63 -3 -3 1 -22 10 -42 l14
-35 -129 0 c-138 0 -144 3 -114 46 17 24 16 36 -2 24z m243 -96 c9 -9 -29 -66
-57 -86 -84 -60 -200 -19 -200 70 0 16 7 20 34 20 19 0 36 -5 38 -10 2 -6 15
-13 31 -15 23 -5 27 -2 27 16 0 21 3 22 62 15 34 -3 63 -8 65 -10z"/>
<path d="M1081 1009 c-41 -56 -49 -103 -25 -148 23 -43 86 -81 135 -81 97 0
170 122 125 209 -20 37 -46 59 -46 38 0 -8 6 -20 14 -26 8 -6 16 -21 19 -32 5
-19 2 -19 -41 -13 -26 4 -77 8 -114 8 -38 0 -68 3 -68 7 0 4 11 21 25 37 15
18 21 33 16 37 -6 3 -24 -13 -40 -36z m84 -79 c5 -16 12 -19 28 -14 12 4 25
11 28 16 4 6 24 7 49 3 41 -7 42 -8 36 -39 -8 -43 -67 -96 -106 -96 -71 0
-140 55 -140 111 0 28 3 30 82 37 9 1 20 -7 23 -18z"/>
<path d="M1030 761 c0 -41 -5 -64 -16 -75 -36 -37 -64 -10 -64 60 0 29 -4 56
-10 59 -6 4 -10 -17 -10 -54 0 -48 4 -65 20 -81 25 -25 41 -25 74 1 23 18 26
28 26 79 0 32 -4 62 -10 65 -6 4 -10 -16 -10 -54z"/>
<path d="M680 785 c0 -21 74 -54 123 -55 39 0 114 26 104 36 -3 3 -28 1 -55
-6 -57 -15 -110 -7 -146 21 -22 17 -26 18 -26 4z"/>
<path d="M1088 741 c36 -32 119 -38 177 -12 61 27 52 39 -10 15 -48 -18 -63
-17 -165 11 l-25 7 23 -21z"/>
<path d="M872 541 c-71 -18 -116 -41 -80 -41 9 0 28 4 43 10 20 8 29 6 45 -10
11 -11 24 -20 28 -20 5 0 14 -12 20 -26 14 -29 49 -30 63 -1 5 9 14 25 19 35
6 9 13 25 16 35 8 22 25 21 107 -7 37 -12 70 -19 73 -15 6 10 -1 14 -80 38
-82 25 -156 26 -254 2z m136 -8 c-2 -5 -12 -25 -21 -45 -10 -21 -20 -38 -22
-38 -7 0 -75 68 -75 74 0 6 42 12 88 15 19 0 32 -2 30 -6z"/>
<path d="M726 538 c-8 -17 15 -71 35 -83 19 -12 23 4 5 24 -9 10 -21 32 -25
47 -7 23 -10 26 -15 12z"/>
<path d="M1260 516 c0 -7 -10 -25 -21 -40 -25 -32 -17 -48 11 -20 23 23 37 74
21 74 -6 0 -11 -6 -11 -14z"/>
</g>
</svg>
