<?xml version="1.0" standalone="no"?>
<!DOCTYPE svg PUBLIC "-//W3C//DTD SVG 20010904//EN"
 "http://www.w3.org/TR/2001/REC-SVG-20010904/DTD/svg10.dtd">
<svg version="1.0" xmlns="http://www.w3.org/2000/svg"
 width="206.000000pt" height="245.000000pt" viewBox="0 0 206.000000 245.000000"
 preserveAspectRatio="xMidYMid meet">

<g transform="translate(0.000000,245.000000) scale(0.100000,-0.100000)"
fill="#000000" stroke="none">
<path d="M945 2320 c-78 -12 -216 -55 -280 -87 -129 -65 -287 -201 -371 -319
-232 -325 -271 -858 -90 -1240 100 -210 237 -356 436 -463 273 -146 697 -143
949 6 119 71 241 204 309 338 20 40 82 210 82 225 0 4 -19 13 -42 19 -24 6
-64 17 -89 25 l-47 14 -36 -86 c-81 -197 -197 -339 -332 -408 -67 -34 -85 -38
-166 -42 -156 -8 -257 27 -360 126 -104 99 -164 222 -195 399 -25 146 -25 577
1 728 47 285 140 451 294 527 89 44 215 51 322 19 173 -53 313 -223 411 -501
l37 -105 76 0 c41 0 79 5 84 10 4 6 1 175 -9 385 -10 206 -18 390 -18 408 l-1
32 -85 0 c-84 0 -85 0 -91 -27 -11 -53 -15 -61 -35 -87 -29 -37 -67 -34 -208
19 -66 24 -158 54 -203 66 -94 24 -250 33 -343 19z"/>
</g>
</svg>
